<svg width="106" height="28" viewBox="0 0 106 28" fill="none" xmlns="http://www.w3.org/2000/svg">
<path fill-rule="evenodd" clip-rule="evenodd" d="M0 3.54298C0 1.87034 1.35594 0.514404 3.02857 0.514404H102.971C104.644 0.514404 106 1.87034 106 3.54298V8.60922C106 9.59331 105.59 10.5189 105.143 11.3956C104.723 12.2202 104.486 13.1539 104.486 14.1429C104.486 15.1319 104.723 16.0656 105.143 16.8901C105.59 17.7669 106 18.6925 106 19.6766V24.743C106 26.4156 104.644 27.7715 102.971 27.7715H3.02857C1.35594 27.7715 0 26.4156 0 24.743V19.6766C0 18.6925 0.409917 17.7669 0.856876 16.8902C1.27724 16.0656 1.51429 15.1319 1.51429 14.1429C1.51429 13.1539 1.27724 12.2202 0.856876 11.3956C0.409918 10.5189 0 9.59329 0 8.60919V3.54298Z" fill="#FF2C2C"/>
<path d="M14.2369 10.7448C15.2909 10.7448 16.1328 11.084 16.7628 11.7624C17.4048 12.4287 17.7259 13.3372 17.7259 14.4881V20.0667H15.7633V14.688C15.7633 14.0096 15.5816 13.4887 15.2182 13.1252C14.8548 12.7618 14.3581 12.5801 13.7281 12.5801C13.0134 12.5801 12.4501 12.8042 12.0382 13.2524C11.6263 13.6885 11.4204 14.3367 11.4204 15.1968V20.0667H9.45785V7.34671H11.4204V12.144C12.0261 11.2112 12.9649 10.7448 14.2369 10.7448ZM21.6925 9.25471C21.4502 9.497 21.1595 9.61814 20.8203 9.61814C20.4811 9.61814 20.1843 9.497 19.9299 9.25471C19.6876 9.00031 19.5664 8.70351 19.5664 8.36431C19.5664 8.02511 19.6876 7.73437 19.9299 7.49208C20.1721 7.23768 20.4689 7.11048 20.8203 7.11048C21.1716 7.11048 21.4684 7.23768 21.7107 7.49208C21.9529 7.73437 22.0741 8.02511 22.0741 8.36431C22.0741 8.70351 21.9469 9.00031 21.6925 9.25471ZM21.8015 20.0667H19.839V10.981H21.8015V20.0667ZM29.15 10.981V12.8708H26.8967V17.232C26.8967 17.6075 26.9815 17.8801 27.1511 18.0497C27.3207 18.2072 27.5691 18.298 27.8962 18.3223C28.2354 18.3344 28.6533 18.3283 29.15 18.3041V20.0667C27.6478 20.2484 26.5697 20.1212 25.9155 19.6851C25.2613 19.2369 24.9342 18.4192 24.9342 17.232V12.8708H23.2625V10.981H24.9342V9.01848L26.8967 8.437V10.981H29.15ZM43.2481 18.9219C42.3274 19.8426 41.1947 20.3029 39.85 20.3029C38.5053 20.3029 37.3726 19.8426 36.4519 18.9219C35.5191 17.9891 35.0527 16.8564 35.0527 15.5239C35.0527 14.1913 35.5191 13.0586 36.4519 12.1258C37.3726 11.2051 38.5053 10.7448 39.85 10.7448C41.1947 10.7448 42.3274 11.2051 43.2481 12.1258C44.1809 13.0586 44.6473 14.1913 44.6473 15.5239C44.6473 16.8564 44.1809 17.9891 43.2481 18.9219ZM37.0153 15.5239C37.0153 16.3476 37.2878 17.0321 37.833 17.5772C38.3781 18.1224 39.0505 18.3949 39.85 18.3949C40.6495 18.3949 41.3219 18.1224 41.867 17.5772C42.4122 17.0321 42.6847 16.3476 42.6847 15.5239C42.6847 14.7001 42.4122 14.0156 41.867 13.4705C41.3219 12.9253 40.6495 12.6528 39.85 12.6528C39.0505 12.6528 38.3781 12.9253 37.833 13.4705C37.2878 14.0156 37.0153 14.7001 37.0153 15.5239ZM50.8633 7.11048V9.00031C49.4338 8.87917 48.7191 9.47882 48.7191 10.7993V10.981H50.8633V12.8708H48.7191V20.0667H46.7566V12.8708H45.3755V10.981H46.7566V10.7993C46.7566 9.5394 47.1079 8.58842 47.8105 7.94637C48.5131 7.30431 49.5307 7.02568 50.8633 7.11048ZM58.3171 13.4887C58.3171 13.7673 58.4625 13.9975 58.7533 14.1792C59.044 14.3488 59.468 14.5123 60.0253 14.6698C60.4493 14.7667 60.8187 14.8697 61.1337 14.9787C61.4487 15.0877 61.7818 15.2513 62.1331 15.4693C62.4845 15.6753 62.751 15.9539 62.9327 16.3052C63.1265 16.6444 63.2174 17.0442 63.2053 17.5045C63.2053 18.3768 62.8661 19.0612 62.1877 19.5579C61.5093 20.0546 60.6673 20.3029 59.6618 20.3029C58.7654 20.3029 57.9961 20.1152 57.3541 19.7396C56.712 19.3641 56.2456 18.8432 55.9549 18.1769L57.6448 17.1956C57.9477 18.0679 58.62 18.504 59.6618 18.504C60.6915 18.504 61.2064 18.1648 61.2064 17.4864C61.2064 16.9897 60.631 16.602 59.4801 16.3234C59.044 16.2144 58.6745 16.1053 58.3717 15.9963C58.0809 15.8873 57.7538 15.7298 57.3904 15.5239C57.0391 15.3179 56.7665 15.0453 56.5727 14.7061C56.391 14.3669 56.3062 13.9732 56.3183 13.525C56.3183 12.6891 56.6333 12.0168 57.2632 11.508C57.9053 10.9992 58.6987 10.7448 59.6437 10.7448C60.3947 10.7448 61.061 10.9144 61.6425 11.2536C62.2361 11.5807 62.6904 12.041 63.0054 12.6346L61.3518 13.5613C61.0489 12.8708 60.4795 12.5256 59.6437 12.5256C59.256 12.5256 58.935 12.6104 58.6806 12.78C58.4383 12.9496 58.3171 13.1858 58.3171 13.4887ZM71.8956 12.2712V10.981H73.8581V20.0667H71.8956V18.7584C71.1566 19.7881 70.0966 20.3029 68.7156 20.3029C67.4678 20.3029 66.4018 19.8426 65.5174 18.9219C64.6331 18.0012 64.1909 16.8685 64.1909 15.5239C64.1909 14.1792 64.6331 13.0465 65.5174 12.1258C66.4018 11.2051 67.4678 10.7448 68.7156 10.7448C70.0966 10.7448 71.1566 11.2536 71.8956 12.2712ZM66.9711 17.6136C67.5163 18.1587 68.2007 18.4313 69.0245 18.4313C69.8483 18.4313 70.5327 18.1587 71.0779 17.6136C71.623 17.0563 71.8956 16.3597 71.8956 15.5239C71.8956 14.688 71.623 13.9975 71.0779 13.4523C70.5327 12.8951 69.8483 12.6164 69.0245 12.6164C68.2007 12.6164 67.5163 12.8951 66.9711 13.4523C66.426 13.9975 66.1534 14.688 66.1534 15.5239C66.1534 16.3476 66.426 17.0442 66.9711 17.6136ZM78.1081 20.0667H76.1456V6.80157H78.1081V20.0667ZM89.1636 16.3597H81.9313C82.0767 17.0381 82.4038 17.5651 82.9126 17.9407C83.4335 18.3162 84.0756 18.504 84.8388 18.504C85.8685 18.504 86.6499 18.1284 87.1829 17.3773L88.8001 18.3223C87.9158 19.6427 86.5893 20.3029 84.8206 20.3029C83.3548 20.3029 82.1615 19.8547 81.2408 18.9583C80.3323 18.0497 79.878 16.9049 79.878 15.5239C79.878 14.1792 80.3262 13.0465 81.2227 12.1258C82.107 11.2051 83.2579 10.7448 84.6752 10.7448C85.9957 10.7448 87.086 11.2112 87.9461 12.144C88.8062 13.0768 89.2363 14.2095 89.2363 15.542C89.2363 15.7843 89.212 16.0569 89.1636 16.3597ZM81.9132 14.7607H87.2556C87.1223 14.0459 86.8195 13.4947 86.347 13.1071C85.8867 12.7194 85.3233 12.5256 84.6571 12.5256C83.9302 12.5256 83.3245 12.7255 82.8399 13.1252C82.3553 13.525 82.0464 14.0701 81.9132 14.7607ZM92.3708 13.4887C92.3708 13.7673 92.5162 13.9975 92.8069 14.1792C93.0977 14.3488 93.5217 14.5123 94.0789 14.6698C94.5029 14.7667 94.8724 14.8697 95.1874 14.9787C95.5024 15.0877 95.8355 15.2513 96.1868 15.4693C96.5381 15.6753 96.8047 15.9539 96.9864 16.3052C97.1802 16.6444 97.2711 17.0442 97.2589 17.5045C97.2589 18.3768 96.9197 19.0612 96.2413 19.5579C95.5629 20.0546 94.721 20.3029 93.7155 20.3029C92.8191 20.3029 92.0498 20.1152 91.4077 19.7396C90.7657 19.3641 90.2993 18.8432 90.0085 18.1769L91.6985 17.1956C92.0013 18.0679 92.6737 18.504 93.7155 18.504C94.7452 18.504 95.2601 18.1648 95.2601 17.4864C95.2601 16.9897 94.6847 16.602 93.5338 16.3234C93.0977 16.2144 92.7282 16.1053 92.4253 15.9963C92.1346 15.8873 91.8075 15.7298 91.4441 15.5239C91.0928 15.3179 90.8202 15.0453 90.6264 14.7061C90.4447 14.3669 90.3599 13.9732 90.372 13.525C90.372 12.6891 90.6869 12.0168 91.3169 11.508C91.9589 10.9992 92.7524 10.7448 93.6973 10.7448C94.4484 10.7448 95.1147 10.9144 95.6962 11.2536C96.2898 11.5807 96.7441 12.041 97.0591 12.6346L95.4055 13.5613C95.1026 12.8708 94.5332 12.5256 93.6973 12.5256C93.3097 12.5256 92.9887 12.6104 92.7343 12.78C92.492 12.9496 92.3708 13.1858 92.3708 13.4887Z" fill="white"/>
</svg>
